<?xml version="1.0" standalone="no"?><!DOCTYPE svg PUBLIC "-//W3C//DTD SVG 1.1//EN" "http://www.w3.org/Graphics/SVG/1.1/DTD/svg11.dtd"><svg t="1506752642178" class="icon" style="" viewBox="0 0 1024 1024" version="1.1" xmlns="http://www.w3.org/2000/svg" p-id="8152" xmlns:xlink="http://www.w3.org/1999/xlink" width="200" height="200"><defs><style type="text/css"></style></defs><path d="M512.439088 189.744503C334.425904 189.744503 190.115478 316.010956 190.115478 471.774165c0 89.019364 47.246381 168.281481 120.870898 219.96983L310.986376 834.389291l141.205184-85.683023c19.541251 3.235387 39.635924 5.098775 60.248745 5.098775 178.013185 0 322.322394-126.267669 322.322394-282.030878S690.451057 189.744503 512.439088 189.744503zM613.163012 572.499305 411.711516 572.499305c-11.126812 0-20.145758-9.016513-20.145758-20.144541 0-11.126812 9.017729-20.143325 20.145758-20.143325l201.451496 0c11.12438 0 20.145758 9.016513 20.145758 20.143325C633.30877 563.482792 624.287391 572.499305 613.163012 572.499305zM653.454527 451.628408 371.421217 451.628408c-11.126812 0-20.145758-9.020162-20.145758-20.143325 0-11.128029 9.017729-20.14819 20.145758-20.14819l282.033311 0c11.12438 0 20.145758 9.020162 20.145758 20.14819C673.599069 442.608246 664.578907 451.628408 653.454527 451.628408z" p-id="8153"></path></svg>